<svg xmlns="http://www.w3.org/2000/svg" width="1120" height="620" viewBox="0 0 1120 620" role="img">
    <defs>
        <linearGradient id="bg" x1="0" y1="0" x2="1" y2="1">
            <stop offset="0%" stop-color="#020617" />
            <stop offset="58%" stop-color="#111827" />
            <stop offset="100%" stop-color="#1e1b4b" />
        </linearGradient>
        <linearGradient id="barSheen" x1="0" y1="0" x2="0" y2="1">
            <stop offset="0%" stop-color="#ffffff" />
            <stop offset="100%" stop-color="#ffffff" stop-opacity="0" />
        </linearGradient>
        <style>
            text { font-family: Inter, ui-sans-serif, system-ui, -apple-system, BlinkMacSystemFont, "Segoe UI", sans-serif; }
            .title { fill: #f8fafc; font-size: 30px; font-weight: 800; letter-spacing: -0.03em; }
            .subtitle { fill: #94a3b8; font-size: 15px; font-weight: 500; }
            .axis-label { fill: #cbd5e1; font-size: 13px; font-weight: 600; }
            .axis-title { fill: #94a3b8; font-size: 13px; font-weight: 800; letter-spacing: 0.08em; text-transform: uppercase; }
            .legend { fill: #e2e8f0; font-size: 14px; font-weight: 700; }
            .value { fill: #f8fafc; font-size: 14px; font-weight: 800; }
            .grid { stroke: #334155; stroke-width: 1; opacity: 0.65; }
            .axis { stroke: #64748b; stroke-width: 1.4; }
        </style>
    </defs>

        <rect x="0" y="0" width="1120" height="620" rx="30" fill="url(#bg)" />
        <circle cx="940" cy="60" r="190" fill="#7c3aed" opacity="0.16" />
        <circle cx="1040" cy="510" r="210" fill="#06b6d4" opacity="0.12" />
        <rect x="24" y="24" width="1072" height="572" rx="24" fill="#0f172a" opacity="0.76" stroke="#334155" />
        <text x="56" y="66" class="title">Realistic 64 KiB Write</text>
        <text x="56" y="92" class="subtitle">200 ops/thread, lower is better</text>
        <line x1="86" y1="528.0" x2="860" y2="528.0" class="grid" /><text x="68" y="533.0" class="axis-label" text-anchor="end">0 us</text><line x1="86" y1="423.0" x2="860" y2="423.0" class="grid" /><text x="68" y="428.0" class="axis-label" text-anchor="end">500 us</text><line x1="86" y1="318.0" x2="860" y2="318.0" class="grid" /><text x="68" y="323.0" class="axis-label" text-anchor="end">1,000 us</text><line x1="86" y1="213.0" x2="860" y2="213.0" class="grid" /><text x="68" y="218.0" class="axis-label" text-anchor="end">1,500 us</text><line x1="86" y1="108.0" x2="860" y2="108.0" class="grid" /><text x="68" y="113.0" class="axis-label" text-anchor="end">2,000 us</text>
        <line x1="86" y1="108" x2="86" y2="528" class="axis" />
        <line x1="86" y1="528" x2="860" y2="528" class="axis" />
        <text x="86.0" y="574" class="axis-label" text-anchor="middle">2</text><text x="344.0" y="574" class="axis-label" text-anchor="middle">4</text><text x="602.0" y="574" class="axis-label" text-anchor="middle">8</text><text x="860.0" y="574" class="axis-label" text-anchor="middle">16</text>
        <text x="473.0" y="602" class="axis-title" text-anchor="middle">Threads</text>
        <text x="28" y="318.0" class="axis-title" transform="rotate(-90 28 318.0)" text-anchor="middle">Latency</text>
        <path d="M 86.0 528.0 L 86.0 520.6 L 344.0 516.7 L 602.0 509.3 L 860.0 495.0 L 860.0 528.0 Z" fill="#7c3aed" opacity="0.1" /><path d="M 86.0 520.6 L 344.0 516.7 L 602.0 509.3 L 860.0 495.0" fill="none" stroke="#7c3aed" stroke-width="4" stroke-linecap="round" stroke-linejoin="round" /><circle cx="86.0" cy="520.6" r="6" fill="#0f172a" stroke="#7c3aed" stroke-width="4" /><circle cx="344.0" cy="516.7" r="6" fill="#0f172a" stroke="#7c3aed" stroke-width="4" /><circle cx="602.0" cy="509.3" r="6" fill="#0f172a" stroke="#7c3aed" stroke-width="4" /><circle cx="860.0" cy="495.0" r="6" fill="#0f172a" stroke="#7c3aed" stroke-width="4" /><path d="M 86.0 528.0 L 86.0 470.9 L 344.0 465.2 L 602.0 446.5 L 860.0 397.0 L 860.0 528.0 Z" fill="#ef4444" opacity="0.045" /><path d="M 86.0 470.9 L 344.0 465.2 L 602.0 446.5 L 860.0 397.0" fill="none" stroke="#ef4444" stroke-width="4" stroke-linecap="round" stroke-linejoin="round" /><circle cx="86.0" cy="470.9" r="6" fill="#0f172a" stroke="#ef4444" stroke-width="4" /><circle cx="344.0" cy="465.2" r="6" fill="#0f172a" stroke="#ef4444" stroke-width="4" /><circle cx="602.0" cy="446.5" r="6" fill="#0f172a" stroke="#ef4444" stroke-width="4" /><circle cx="860.0" cy="397.0" r="6" fill="#0f172a" stroke="#ef4444" stroke-width="4" /><path d="M 86.0 528.0 L 86.0 519.6 L 344.0 510.4 L 602.0 486.2 L 860.0 450.1 L 860.0 528.0 Z" fill="#06b6d4" opacity="0.045" /><path d="M 86.0 519.6 L 344.0 510.4 L 602.0 486.2 L 860.0 450.1" fill="none" stroke="#06b6d4" stroke-width="4" stroke-linecap="round" stroke-linejoin="round" /><circle cx="86.0" cy="519.6" r="6" fill="#0f172a" stroke="#06b6d4" stroke-width="4" /><circle cx="344.0" cy="510.4" r="6" fill="#0f172a" stroke="#06b6d4" stroke-width="4" /><circle cx="602.0" cy="486.2" r="6" fill="#0f172a" stroke="#06b6d4" stroke-width="4" /><circle cx="860.0" cy="450.1" r="6" fill="#0f172a" stroke="#06b6d4" stroke-width="4" /><path d="M 86.0 528.0 L 86.0 518.5 L 344.0 506.6 L 602.0 466.1 L 860.0 218.0 L 860.0 528.0 Z" fill="#f59e0b" opacity="0.045" /><path d="M 86.0 518.5 L 344.0 506.6 L 602.0 466.1 L 860.0 218.0" fill="none" stroke="#f59e0b" stroke-width="4" stroke-linecap="round" stroke-linejoin="round" /><circle cx="86.0" cy="518.5" r="6" fill="#0f172a" stroke="#f59e0b" stroke-width="4" /><circle cx="344.0" cy="506.6" r="6" fill="#0f172a" stroke="#f59e0b" stroke-width="4" /><circle cx="602.0" cy="466.1" r="6" fill="#0f172a" stroke="#f59e0b" stroke-width="4" /><circle cx="860.0" cy="218.0" r="6" fill="#0f172a" stroke="#f59e0b" stroke-width="4" />
        <rect x="888" y="100" width="198" height="164" rx="16" fill="#020617" opacity="0.44" stroke="#334155" />
        <circle cx="916" cy="132" r="6" fill="#7c3aed" /><text x="934" y="137" class="legend">ZeroPool</text><circle cx="916" cy="166" r="6" fill="#ef4444" /><text x="934" y="171" class="legend">Vec</text><circle cx="916" cy="200" r="6" fill="#06b6d4" /><text x="934" y="205" class="legend">opool</text><circle cx="916" cy="234" r="6" fill="#f59e0b" /><text x="934" y="239" class="legend">object_pool</text>

</svg>
